<svg width="48" height="48" viewBox="0 0 48 48" fill="none" xmlns="http://www.w3.org/2000/svg">
<path d="M13.45 42L13 38.7L19.35 21.2C19.7167 21.5667 20.125 21.8667 20.575 22.1C21.025 22.3333 21.5 22.5333 22 22.7L15.85 39.65L13.45 42ZM34.55 42L32.15 39.65L25.9 22.75C26.4 22.5833 26.8833 22.3833 27.35 22.15C27.8167 21.9167 28.2333 21.6167 28.6 21.25L35 38.7L34.55 42ZM24 22C22.3333 22 20.9167 21.4167 19.75 20.25C18.5833 19.0833 18 17.6667 18 16C18 14.6 18.4083 13.3583 19.225 12.275C20.0417 11.1917 21.1333 10.5 22.5 10.2V6H25.5V10.2C26.8667 10.5 27.9583 11.1917 28.775 12.275C29.5917 13.3583 30 14.6 30 16C30 17.6667 29.4167 19.0833 28.25 20.25C27.0833 21.4167 25.6667 22 24 22ZM24 19C24.8333 19 25.5417 18.7083 26.125 18.125C26.7083 17.5417 27 16.8333 27 16C27 15.1667 26.7083 14.4583 26.125 13.875C25.5417 13.2917 24.8333 13 24 13C23.1667 13 22.4583 13.2917 21.875 13.875C21.2917 14.4583 21 15.1667 21 16C21 16.8333 21.2917 17.5417 21.875 18.125C22.4583 18.7083 23.1667 19 24 19Z" fill="#1B5C51"/>
</svg>
