<svg width="30" height="23" viewBox="0 0 30 23" fill="none" xmlns="http://www.w3.org/2000/svg">
<path d="M27 0.666667C25.52 0.2 23.8934 0 22.3334 0C19.7334 0 16.9334 0.533333 15 2C13.0667 0.533333 10.2667 0 7.66671 0C5.06671 0 2.26671 0.533333 0.333374 2V21.5333C0.333374 21.8667 0.666707 22.2 1.00004 22.2C1.13337 22.2 1.20004 22.1333 1.33337 22.1333C3.13337 21.2667 5.73337 20.6667 7.66671 20.6667C10.2667 20.6667 13.0667 21.2 15 22.6667C16.8 21.5333 20.0667 20.6667 22.3334 20.6667C24.5334 20.6667 26.8 21.0667 28.6667 22.0667C28.8 22.1333 28.8667 22.1333 29 22.1333C29.3334 22.1333 29.6667 21.8 29.6667 21.4667V2C28.8667 1.4 28 1 27 0.666667ZM27 18.6667C25.5334 18.2 23.9334 18 22.3334 18C20.0667 18 16.8 18.8667 15 20V4.66667C16.8 3.53333 20.0667 2.66667 22.3334 2.66667C23.9334 2.66667 25.5334 2.86667 27 3.33333V18.6667Z" fill="url(#paint0_linear_15_205)"/>
<defs>
<linearGradient id="paint0_linear_15_205" x1="15" y1="0" x2="15" y2="22.6667" gradientUnits="userSpaceOnUse">
<stop stop-color="#1B5C51"/>
<stop offset="1" stop-color="#488B80"/>
</linearGradient>
</defs>
</svg>
