<svg width="32" height="32" viewBox="0 0 32 32" fill="none" xmlns="http://www.w3.org/2000/svg">
<path d="M3 22.9846L17.9687 22.9846V18.9583L21.0459 18.9583V27H3L3 22.9846Z" fill="#EBC161"/>
<path d="M18.4555 9.28857C18.6815 8.01384 19.1248 6.98494 19.7855 6.20189C20.4287 5.40063 21.4197 5 22.7583 5C24.6533 5 26.0007 5.71021 26.8004 7.13063C27.6001 8.55105 28 10.5269 28 13.0581V18.9583L9.9541 18.9583V13.7957C9.9541 11.2098 10.3192 9.23394 11.0494 7.86815C11.7796 6.50237 12.9531 5.81947 14.5699 5.81947C15.6304 5.81947 16.491 6.15637 17.1516 6.83016C17.7949 7.48573 18.2295 8.30521 18.4555 9.28857ZM12.7184 14.9429H17.282V12.9762C17.282 11.9928 17.0908 11.2371 16.7083 10.709C16.3084 10.1809 15.7086 9.91683 14.9089 9.91683C14.1092 9.91683 13.5442 10.1991 13.2138 10.7636C12.8835 11.3281 12.7184 12.2114 12.7184 13.4132V14.9429ZM25.1575 13.0308C25.1575 11.7743 24.9837 10.8183 24.636 10.1627C24.2709 9.5071 23.5928 9.17931 22.6019 9.17931C20.7938 9.17931 19.8898 10.3448 19.8898 12.6757L19.8898 14.9429H25.1575V13.0308Z" fill="#EBC161"/>
</svg>
