<svg width="141" height="91" viewBox="0 0 141 91" fill="none" xmlns="http://www.w3.org/2000/svg">
<path d="M20.34 69.6114L80.61 69.6114L80.61 40.8414L93 42.5214L93 85.0464L20.34 85.0464L20.34 69.6114Z" fill="#2D7266"/>
<path d="M82.57 16.9648C83.48 12.0648 85.265 8.1098 87.925 5.0998C90.515 2.0198 94.505 0.479798 99.895 0.479798C107.525 0.479798 112.95 3.2098 116.17 8.6698C119.39 14.1298 121 21.7248 121 31.4548L121 54.1348L48.34 54.1348L48.34 34.2898C48.34 24.3498 49.81 16.7548 52.75 11.5048C55.69 6.2548 60.415 3.6298 66.925 3.6298C71.195 3.6298 74.66 4.9248 77.32 7.5148C79.91 10.0348 81.66 13.1848 82.57 16.9648ZM59.47 38.6998L77.845 38.6998L77.845 31.1398C77.845 27.3598 77.075 24.4548 75.535 22.4248C73.925 20.3948 71.51 19.3798 68.29 19.3798C65.07 19.3798 62.795 20.4648 61.465 22.6348C60.135 24.8048 59.47 28.1998 59.47 32.8198L59.47 38.6998ZM109.555 31.3498C109.555 26.5198 108.855 22.8448 107.455 20.3248C105.985 17.8048 103.255 16.5448 99.265 16.5448C91.985 16.5448 88.345 21.0248 88.345 29.9848L88.345 38.6998L109.555 38.6998L109.555 31.3498Z" fill="#2D7266"/>
</svg>
