<svg width="131" height="86" viewBox="0 0 131 86" fill="none" xmlns="http://www.w3.org/2000/svg">
<path d="M0.340027 69.6114L60.61 69.6114V54.1348L73 54.1348V85.0464H0.340028L0.340027 69.6114Z" fill="#EBC161"/>
<path d="M62.57 16.9648C63.48 12.0648 65.265 8.1098 67.925 5.0998C70.515 2.0198 74.505 0.479798 79.895 0.479797C87.525 0.479797 92.95 3.2098 96.17 8.6698C99.39 14.1298 101 21.7248 101 31.4548V54.1348L28.34 54.1348V34.2898C28.34 24.3498 29.81 16.7548 32.75 11.5048C35.69 6.2548 40.415 3.6298 46.925 3.6298C51.195 3.6298 54.66 4.9248 57.32 7.5148C59.91 10.0348 61.66 13.1848 62.57 16.9648ZM39.47 38.6998H57.845V31.1398C57.845 27.3598 57.075 24.4548 55.535 22.4248C53.925 20.3948 51.51 19.3798 48.29 19.3798C45.07 19.3798 42.795 20.4648 41.465 22.6348C40.135 24.8048 39.47 28.1998 39.47 32.8198V38.6998ZM89.555 31.3498C89.555 26.5198 88.855 22.8448 87.455 20.3248C85.985 17.8048 83.255 16.5448 79.265 16.5448C71.985 16.5448 68.345 21.0248 68.345 29.9848L68.345 38.6998H89.555V31.3498Z" fill="#EBC161"/>
<path d="M89.232 70.24C88.5814 70.24 88.0694 70.0533 87.696 69.68C87.3334 69.296 87.152 68.7573 87.152 68.064V58.144L89.2 57.92V68C89.2 68.3947 89.36 68.592 89.68 68.592C89.84 68.592 90 68.5653 90.16 68.512L90.592 69.952C90.1654 70.144 89.712 70.24 89.232 70.24Z" fill="black"/>
<path d="M98.8167 65.568C98.8167 65.6747 98.8007 65.952 98.7687 66.4H93.4567C93.5207 67.2213 93.734 67.808 94.0967 68.16C94.4593 68.512 94.9393 68.688 95.5367 68.688C95.91 68.688 96.262 68.6293 96.5927 68.512C96.9233 68.384 97.2753 68.192 97.6487 67.936L98.4967 69.104C97.558 69.8613 96.5127 70.24 95.3607 70.24C94.07 70.24 93.0727 69.8453 92.3687 69.056C91.6753 68.2667 91.3287 67.1893 91.3287 65.824C91.3287 64.96 91.478 64.1867 91.7767 63.504C92.0753 62.8107 92.5073 62.272 93.0727 61.888C93.638 61.4933 94.31 61.296 95.0887 61.296C96.2727 61.296 97.19 61.6747 97.8407 62.432C98.4913 63.1787 98.8167 64.224 98.8167 65.568ZM96.7847 64.976C96.7847 63.4933 96.2353 62.752 95.1367 62.752C94.6353 62.752 94.2407 62.9387 93.9527 63.312C93.6753 63.6747 93.51 64.2613 93.4567 65.072H96.7847V64.976Z" fill="black"/>
<path d="M105.502 69.6C105.203 69.8133 104.867 69.9733 104.494 70.08C104.131 70.1867 103.758 70.24 103.374 70.24C102.542 70.2293 101.907 69.9947 101.47 69.536C101.043 69.0667 100.83 68.3787 100.83 67.472V63.008H99.5019V61.536H100.83V59.664L102.878 59.424V61.536H104.846L104.638 63.008H102.878V67.424C102.878 67.84 102.947 68.1387 103.086 68.32C103.235 68.5013 103.465 68.592 103.774 68.592C104.083 68.592 104.419 68.4907 104.782 68.288L105.502 69.6Z" fill="black"/>
<path d="M108.702 61.536V70H106.654V61.536H108.702ZM108.894 56.88L109.726 58.48L106.11 59.92L105.534 58.88L108.894 56.88Z" fill="black"/>
<path d="M114.578 61.296C115.132 61.296 115.628 61.376 116.066 61.536C116.514 61.696 116.935 61.9467 117.33 62.288L116.418 63.52C116.13 63.3067 115.852 63.152 115.586 63.056C115.319 62.96 115.026 62.912 114.706 62.912C113.436 62.912 112.802 63.8773 112.802 65.808C112.802 66.7893 112.967 67.4987 113.298 67.936C113.628 68.3627 114.098 68.576 114.706 68.576C115.004 68.576 115.276 68.528 115.522 68.432C115.778 68.336 116.076 68.1813 116.418 67.968L117.33 69.264C116.53 69.9147 115.618 70.24 114.594 70.24C113.783 70.24 113.079 70.064 112.482 69.712C111.884 69.3493 111.426 68.8373 111.106 68.176C110.786 67.5147 110.626 66.736 110.626 65.84C110.626 64.944 110.786 64.1547 111.106 63.472C111.426 62.7787 111.884 62.2453 112.482 61.872C113.079 61.488 113.778 61.296 114.578 61.296Z" fill="black"/>
<path d="M120.858 61.536V70H118.81V61.536H120.858ZM119.818 57.248C120.202 57.248 120.511 57.3707 120.746 57.616C120.991 57.8507 121.114 58.144 121.114 58.496C121.114 58.848 120.991 59.1413 120.746 59.376C120.511 59.6107 120.202 59.728 119.818 59.728C119.445 59.728 119.135 59.6107 118.89 59.376C118.655 59.1413 118.538 58.848 118.538 58.496C118.538 58.144 118.655 57.8507 118.89 57.616C119.135 57.3707 119.445 57.248 119.818 57.248Z" fill="black"/>
<path d="M129.582 67.76C129.582 68.0907 129.63 68.336 129.726 68.496C129.832 68.6453 129.998 68.7627 130.222 68.848L129.79 70.208C129.31 70.1653 128.915 70.048 128.606 69.856C128.307 69.664 128.078 69.3707 127.918 68.976C127.63 69.4027 127.267 69.7227 126.83 69.936C126.403 70.1387 125.923 70.24 125.39 70.24C124.547 70.24 123.88 70 123.39 69.52C122.899 69.04 122.654 68.4107 122.654 67.632C122.654 66.7147 122.984 66.016 123.646 65.536C124.318 65.0453 125.272 64.8 126.51 64.8H127.566V64.32C127.566 63.776 127.438 63.3973 127.182 63.184C126.936 62.96 126.536 62.848 125.982 62.848C125.363 62.848 124.616 62.9973 123.742 63.296L123.262 61.904C124.318 61.4987 125.342 61.296 126.334 61.296C128.499 61.296 129.582 62.2667 129.582 64.208V67.76ZM125.934 68.752C126.627 68.752 127.171 68.4053 127.566 67.712V66H126.718C125.395 66 124.734 66.4907 124.734 67.472C124.734 67.8773 124.835 68.192 125.038 68.416C125.24 68.64 125.539 68.752 125.934 68.752Z" fill="black"/>
<path d="M91.616 76.296C92.5974 76.296 93.3654 76.6907 93.92 77.48C94.4747 78.2587 94.752 79.352 94.752 80.76C94.752 81.6347 94.6134 82.4133 94.336 83.096C94.0694 83.768 93.6854 84.296 93.184 84.68C92.6827 85.0533 92.0907 85.24 91.408 85.24C90.9494 85.24 90.528 85.144 90.144 84.952C89.7707 84.76 89.4454 84.488 89.168 84.136L89.04 85H87.232V73.144L89.28 72.92V77.496C89.5574 77.112 89.8934 76.8187 90.288 76.616C90.6934 76.4027 91.136 76.296 91.616 76.296ZM90.848 83.704C91.4027 83.704 91.8347 83.4693 92.144 83C92.4534 82.52 92.608 81.7733 92.608 80.76C92.608 79.6933 92.464 78.9413 92.176 78.504C91.888 78.056 91.4827 77.832 90.96 77.832C90.3094 77.832 89.7494 78.216 89.28 78.984V82.728C89.4614 83.0373 89.6854 83.2773 89.952 83.448C90.2294 83.6187 90.528 83.704 90.848 83.704Z" fill="black"/>
<path d="M100.939 76.312C101.249 76.312 101.531 76.3493 101.787 76.424L101.435 78.408C101.179 78.344 100.929 78.312 100.683 78.312C100.182 78.312 99.7873 78.4933 99.4993 78.856C99.2113 79.208 98.9819 79.752 98.8113 80.488V85H96.7633V76.536H98.5393L98.7313 78.2C98.9339 77.592 99.2273 77.128 99.6113 76.808C99.9953 76.4773 100.438 76.312 100.939 76.312Z" fill="black"/>
<path d="M105.108 76.536V85H103.06V76.536H105.108ZM104.068 72.248C104.452 72.248 104.761 72.3707 104.996 72.616C105.241 72.8507 105.364 73.144 105.364 73.496C105.364 73.848 105.241 74.1413 104.996 74.376C104.761 74.6107 104.452 74.728 104.068 74.728C103.695 74.728 103.385 74.6107 103.14 74.376C102.905 74.1413 102.788 73.848 102.788 73.496C102.788 73.144 102.905 72.8507 103.14 72.616C103.385 72.3707 103.695 72.248 104.068 72.248Z" fill="black"/>
<path d="M112.424 84.6C112.125 84.8133 111.789 84.9733 111.416 85.08C111.053 85.1867 110.68 85.24 110.296 85.24C109.464 85.2293 108.829 84.9947 108.392 84.536C107.965 84.0667 107.752 83.3787 107.752 82.472V78.008H106.424V76.536H107.752V74.664L109.8 74.424V76.536H111.768L111.56 78.008H109.8V82.424C109.8 82.84 109.869 83.1387 110.008 83.32C110.157 83.5013 110.386 83.592 110.696 83.592C111.005 83.592 111.341 83.4907 111.704 83.288L112.424 84.6Z" fill="black"/>
<path d="M116.766 76.296C118.014 76.296 118.985 76.696 119.678 77.496C120.382 78.2853 120.734 79.3733 120.734 80.76C120.734 81.6453 120.574 82.4293 120.254 83.112C119.934 83.784 119.475 84.3067 118.878 84.68C118.281 85.0533 117.571 85.24 116.75 85.24C115.502 85.24 114.526 84.8453 113.822 84.056C113.118 83.256 112.766 82.1573 112.766 80.76C112.766 79.8747 112.926 79.096 113.246 78.424C113.566 77.752 114.025 77.2293 114.622 76.856C115.23 76.4827 115.945 76.296 116.766 76.296ZM116.766 77.848C115.539 77.848 114.926 78.8187 114.926 80.76C114.926 81.7627 115.075 82.504 115.374 82.984C115.683 83.4533 116.142 83.688 116.75 83.688C117.358 83.688 117.811 83.448 118.11 82.968C118.419 82.488 118.574 81.752 118.574 80.76C118.574 79.768 118.419 79.0373 118.11 78.568C117.811 78.088 117.363 77.848 116.766 77.848Z" fill="black"/>
</svg>
